<svg width="28" height="28" viewBox="0 0 28 28" fill="none" xmlns="http://www.w3.org/2000/svg">
<g clip-path="url(#clip0)">
<path d="M26.4546 28.0001C27.308 28.0001 28 27.3082 28 26.4548V1.54536C28 0.691797 27.308 0 26.4546 0H1.54536C0.691687 0 0 0.691797 0 1.54536V26.4548C0 27.3082 0.691687 28.0001 1.54536 28.0001H26.4546Z" fill="#EBEBEB"/>
<path d="M19.3195 27.9996V17.1565H22.9591L23.504 12.9308H19.3195V10.2328C19.3195 9.0093 19.6593 8.17553 21.4138 8.17553L23.6515 8.17455V4.39509C23.2643 4.34358 21.936 4.22852 20.3908 4.22852C17.1645 4.22852 14.9557 6.19781 14.9557 9.81441V12.9308H11.3068V17.1565H14.9557V27.9996H19.3195Z" fill="#767676"/>
</g>
<defs>
<clipPath id="clip0">
<rect width="28" height="28" fill="white"/>
</clipPath>
</defs>
</svg>
