<svg width="26" height="27" viewBox="0 0 26 27" fill="none" xmlns="http://www.w3.org/2000/svg">
<path fill-rule="evenodd" clip-rule="evenodd" d="M8.05558 2.6838C6.28751 3.12633 4.53091 3.60767 2.78725 4.1274C2.62945 4.17275 2.48859 4.25863 2.38087 4.37516C2.27314 4.4917 2.20291 4.63417 2.17825 4.7862C1.14778 11.8008 3.52578 16.92 6.36198 20.2914C7.78491 21.9834 9.32578 23.2362 10.6095 24.0588C11.2533 24.4692 11.8198 24.768 12.2664 24.9588C12.4906 25.0542 12.6724 25.119 12.8116 25.1568C12.873 25.1752 12.9356 25.1896 12.9991 25.2C13.0126 25.1982 13.0726 25.191 13.1866 25.1586C13.3258 25.119 13.5076 25.0542 13.7318 24.9588C14.1765 24.768 14.7468 24.4692 15.3887 24.0588C16.9984 23.0073 18.4301 21.7374 19.6362 20.2914C22.4724 16.92 24.8504 11.8008 23.82 4.7862C23.7953 4.63417 23.7251 4.4917 23.6174 4.37516C23.5096 4.25863 23.3688 4.17275 23.211 4.1274C22.0007 3.7674 19.9591 3.1806 17.9426 2.6838C15.8817 2.178 13.9851 1.8 12.9991 1.8C12.0131 1.8 10.1184 2.178 8.05558 2.6838ZM7.56065 0.945C9.57711 0.4482 11.7173 0 12.9991 0C14.279 0 16.4211 0.4482 18.4376 0.945C20.2362 1.39459 22.0231 1.88373 23.7968 2.412C24.8176 2.7144 25.587 3.5334 25.7359 4.5432C26.8437 12.0978 24.2743 17.6958 21.1597 21.4002C19.8324 22.99 18.2567 24.3855 16.4849 25.5402C15.8689 25.942 15.2176 26.2948 14.538 26.595C14.016 26.8182 13.4592 27 12.9991 27C12.539 27 11.9822 26.8182 11.4602 26.595C10.7805 26.2951 10.1292 25.9422 9.51331 25.5402C7.74227 24.3853 6.16715 22.9898 4.84045 21.4002C1.72198 17.6958 -0.845487 12.0978 0.262313 4.5432C0.336381 4.05373 0.557817 3.59379 0.900991 3.21663C1.24417 2.83946 1.69505 2.56049 2.20145 2.412C3.97518 1.88374 5.76208 1.39461 7.56065 0.945Z" fill="#696969"/>
<path d="M12.9991 3.14941C14.7565 3.14941 19.1626 4.38252 21.2235 4.98917C21.5556 5.08399 21.8516 5.26546 22.0764 5.51208C22.3012 5.7587 22.4453 6.06014 22.4918 6.38069C24.0655 17.9449 14.5071 23.3958 12.9991 23.3958V3.14941Z" fill="#696969"/>
</svg>
