<svg width="60" height="60" viewBox="0 0 60 60" fill="none" xmlns="http://www.w3.org/2000/svg">
<circle cx="30" cy="30" r="29" stroke="#696969" stroke-width="2"/>
<path d="M40.5 30H43.5C43.5 26.4196 42.0777 22.9858 39.5459 20.4541C37.0142 17.9223 33.5804 16.5 30 16.5V19.5C35.805 19.5 40.5 24.195 40.5 30ZM34.5 30H37.5C37.5 25.86 34.14 22.5 30 22.5V25.5C32.49 25.5 34.5 27.51 34.5 30ZM31.815 38.055C27.5568 35.8893 24.0956 32.4282 21.93 28.17L25.725 24.375L24.81 16.5H16.545C15.675 31.77 28.23 44.325 43.5 43.455V35.19L35.595 34.275L31.815 38.055Z" fill="#696969"/>
</svg>
