<svg width="60" height="60" viewBox="0 0 60 60" fill="none" xmlns="http://www.w3.org/2000/svg">
<circle cx="30" cy="30" r="29" stroke="#696969" stroke-width="2"/>
<path d="M35 38C35 38.2652 34.8946 38.5196 34.7071 38.7071C34.5196 38.8946 34.2652 39 34 39H20C19.78 39 19.57 39.2 19.39 39.33L16 42V26C16 25.7348 16.1054 25.4804 16.2929 25.2929C16.4804 25.1054 16.7348 25 17 25H20.86V23H17C16.2044 23 15.4413 23.3161 14.8787 23.8787C14.3161 24.4413 14 25.2044 14 26V44C14.0015 44.1857 14.0547 44.3674 14.1536 44.5245C14.2525 44.6817 14.3932 44.8083 14.56 44.89C14.7207 44.9631 14.8978 44.9923 15.0735 44.9747C15.2491 44.9572 15.417 44.8934 15.56 44.79L20.71 41H34.15C34.529 41.0112 34.9063 40.9445 35.2585 40.8039C35.6106 40.6634 35.9302 40.4521 36.1974 40.183C36.4646 39.914 36.6736 39.5929 36.8117 39.2398C36.9498 38.8867 37.0139 38.5089 37 38.13V37H35V38Z" fill="#696969"/>
<path d="M44 25.22V34.94L40.5 32.21C40.3255 32.0745 40.1109 32.0007 39.89 32H26C25.7348 32 25.4804 31.8946 25.2929 31.7071C25.1054 31.5196 25 31.2652 25 31V19C25 18.7348 25.1054 18.4804 25.2929 18.2929C25.4804 18.1054 25.7348 18 26 18H34.5C34.5026 17.3238 34.5968 16.651 34.78 16H26C25.2044 16 24.4413 16.3161 23.8787 16.8787C23.3161 17.4413 23 18.2044 23 19V31C23 31.7956 23.3161 32.5587 23.8787 33.1213C24.4413 33.6839 25.2044 34 26 34H39.55L44.33 37.71C44.4721 37.8151 44.6395 37.8806 44.8152 37.8999C44.9908 37.9192 45.1685 37.8917 45.33 37.82C45.5002 37.739 45.644 37.6115 45.7448 37.4522C45.8457 37.293 45.8995 37.1085 45.9 36.92V24.37C45.3096 24.7408 44.67 25.027 44 25.22Z" fill="#696969"/>
<path d="M42 23C44.7614 23 47 20.7614 47 18C47 15.2386 44.7614 13 42 13C39.2386 13 37 15.2386 37 18C37 20.7614 39.2386 23 42 23Z" fill="#696969"/>
</svg>
