<svg width="60" height="60" viewBox="0 0 60 60" fill="none" xmlns="http://www.w3.org/2000/svg">
<circle cx="30" cy="30" r="29" stroke="#696969" stroke-width="2"/>
<path fill-rule="evenodd" clip-rule="evenodd" d="M23.25 37.8751C23.25 37.5767 23.3685 37.2905 23.5795 37.0796C23.7905 36.8686 24.0766 36.7501 24.375 36.7501H44.625C44.9234 36.7501 45.2095 36.8686 45.4205 37.0796C45.6315 37.2905 45.75 37.5767 45.75 37.8751C45.75 38.1734 45.6315 38.4596 45.4205 38.6706C45.2095 38.8815 44.9234 39.0001 44.625 39.0001H24.375C24.0766 39.0001 23.7905 38.8815 23.5795 38.6706C23.3685 38.4596 23.25 38.1734 23.25 37.8751ZM23.25 28.8751C23.25 28.5767 23.3685 28.2905 23.5795 28.0796C23.7905 27.8686 24.0766 27.7501 24.375 27.7501H44.625C44.9234 27.7501 45.2095 27.8686 45.4205 28.0796C45.6315 28.2905 45.75 28.5767 45.75 28.8751C45.75 29.1734 45.6315 29.4596 45.4205 29.6706C45.2095 29.8815 44.9234 30.0001 44.625 30.0001H24.375C24.0766 30.0001 23.7905 29.8815 23.5795 29.6706C23.3685 29.4596 23.25 29.1734 23.25 28.8751ZM23.25 19.8751C23.25 19.5767 23.3685 19.2905 23.5795 19.0796C23.7905 18.8686 24.0766 18.7501 24.375 18.7501H44.625C44.9234 18.7501 45.2095 18.8686 45.4205 19.0796C45.6315 19.2905 45.75 19.5767 45.75 19.8751C45.75 20.1734 45.6315 20.4596 45.4205 20.6706C45.2095 20.8815 44.9234 21.0001 44.625 21.0001H24.375C24.0766 21.0001 23.7905 20.8815 23.5795 20.6706C23.3685 20.4596 23.25 20.1734 23.25 19.8751ZM20.6715 16.8286C20.7763 16.9331 20.8594 17.0572 20.9161 17.1939C20.9728 17.3306 21.002 17.4771 21.002 17.6251C21.002 17.773 20.9728 17.9196 20.9161 18.0562C20.8594 18.1929 20.7763 18.3171 20.6715 18.4216L17.2965 21.7966C17.192 21.9013 17.0679 21.9844 16.9312 22.0412C16.7945 22.0979 16.648 22.1271 16.5 22.1271C16.352 22.1271 16.2055 22.0979 16.0688 22.0412C15.9322 21.9844 15.808 21.9013 15.7035 21.7966L14.5785 20.6716C14.4739 20.567 14.3909 20.4428 14.3343 20.3061C14.2777 20.1695 14.2486 20.023 14.2486 19.8751C14.2486 19.7271 14.2777 19.5807 14.3343 19.444C14.3909 19.3073 14.4739 19.1832 14.5785 19.0786C14.6831 18.974 14.8073 18.891 14.944 18.8344C15.0806 18.7778 15.2271 18.7486 15.375 18.7486C15.5229 18.7486 15.6694 18.7778 15.8061 18.8344C15.9427 18.891 16.0669 18.974 16.1715 19.0786L16.5 19.4093L19.0785 16.8286C19.183 16.7238 19.3072 16.6407 19.4438 16.584C19.5805 16.5272 19.727 16.498 19.875 16.498C20.023 16.498 20.1695 16.5272 20.3062 16.584C20.4429 16.6407 20.567 16.7238 20.6715 16.8286ZM20.6715 25.8286C20.7763 25.9331 20.8594 26.0572 20.9161 26.1939C20.9728 26.3306 21.002 26.4771 21.002 26.6251C21.002 26.773 20.9728 26.9196 20.9161 27.0562C20.8594 27.1929 20.7763 27.3171 20.6715 27.4216L17.2965 30.7966C17.192 30.9013 17.0679 30.9844 16.9312 31.0412C16.7945 31.0979 16.648 31.1271 16.5 31.1271C16.352 31.1271 16.2055 31.0979 16.0688 31.0412C15.9322 30.9844 15.808 30.9013 15.7035 30.7966L14.5785 29.6716C14.3673 29.4603 14.2486 29.1738 14.2486 28.8751C14.2486 28.5763 14.3673 28.2898 14.5785 28.0786C14.7898 27.8673 15.0763 27.7486 15.375 27.7486C15.6738 27.7486 15.9603 27.8673 16.1715 28.0786L16.5 28.4093L19.0785 25.8286C19.183 25.7238 19.3072 25.6407 19.4438 25.584C19.5805 25.5272 19.727 25.498 19.875 25.498C20.023 25.498 20.1695 25.5272 20.3062 25.584C20.4429 25.6407 20.567 25.7238 20.6715 25.8286ZM20.6715 34.8286C20.7763 34.9331 20.8594 35.0572 20.9161 35.1939C20.9728 35.3306 21.002 35.4771 21.002 35.6251C21.002 35.773 20.9728 35.9196 20.9161 36.0562C20.8594 36.1929 20.7763 36.3171 20.6715 36.4216L17.2965 39.7966C17.192 39.9013 17.0679 39.9844 16.9312 40.0412C16.7945 40.0979 16.648 40.1271 16.5 40.1271C16.352 40.1271 16.2055 40.0979 16.0688 40.0412C15.9322 39.9844 15.808 39.9013 15.7035 39.7966L14.5785 38.6716C14.3673 38.4603 14.2486 38.1738 14.2486 37.8751C14.2486 37.5763 14.3673 37.2898 14.5785 37.0786C14.7898 36.8673 15.0763 36.7486 15.375 36.7486C15.6738 36.7486 15.9603 36.8673 16.1715 37.0786L16.5 37.4093L19.0785 34.8286C19.183 34.7238 19.3072 34.6407 19.4438 34.584C19.5805 34.5272 19.727 34.498 19.875 34.498C20.023 34.498 20.1695 34.5272 20.3062 34.584C20.4429 34.6407 20.567 34.7238 20.6715 34.8286Z" fill="#696969"/>
</svg>
