<svg width="28" height="30" viewBox="0 0 28 30" fill="none" xmlns="http://www.w3.org/2000/svg">
<path d="M27.5556 11.2715V25.3179C27.5556 26.5596 27.0972 27.7506 26.2812 28.6286C25.4653 29.5067 24.3586 30 23.2047 30H4.35088C3.19695 30 2.09029 29.5067 1.27434 28.6286C0.458395 27.7506 0 26.5596 0 25.3179V11.2715C0 9.53907 0.874526 8.02518 2.17544 7.21673L2.17109 7.21049L13.7749 0L25.3874 7.21517L25.3859 7.21985C26.0459 7.63119 26.5938 8.22206 26.9746 8.93318C27.3554 9.64431 27.5558 10.4507 27.5556 11.2715ZM2.49015 8.87733L13.7778 16.7652L25.0654 8.87733L13.7749 1.80262L2.49015 8.87733ZM13.7778 18.6255L1.64463 10.1477C1.51597 10.5062 1.45008 10.8872 1.45029 11.2715V25.3179C1.45029 26.1457 1.75589 26.9397 2.29985 27.525C2.84382 28.1104 3.58159 28.4393 4.35088 28.4393H23.2047C23.974 28.4393 24.7117 28.1104 25.2557 27.525C25.7997 26.9397 26.1053 26.1457 26.1053 25.3179V11.2715C26.1053 10.875 26.0371 10.4958 25.9109 10.1477L13.7778 18.624V18.6255Z" fill="#EBEBEB"/>
</svg>
