<svg width="30" height="30" viewBox="0 0 30 30" fill="none" xmlns="http://www.w3.org/2000/svg">
<circle cx="15" cy="15" r="14" stroke="#EBEBEB" stroke-width="2"/>
<path d="M20.25 15.0001H21.75C21.75 13.2099 21.0389 11.493 19.773 10.2272C18.5071 8.9613 16.7903 8.25014 15 8.25014V9.75014C17.9025 9.75014 20.25 12.0976 20.25 15.0001ZM17.25 15.0001H18.75C18.75 12.9301 17.07 11.2501 15 11.2501V12.7501C16.245 12.7501 17.25 13.7551 17.25 15.0001ZM15.9075 19.0276C13.7784 17.9448 12.0479 16.2142 10.965 14.0851L12.8625 12.1876L12.405 8.25014H8.27255C7.83755 15.8851 14.115 22.1626 21.75 21.7276V17.5951L17.7975 17.1376L15.9075 19.0276Z" fill="#EBEBEB"/>
</svg>
