<svg width="33" height="30" viewBox="0 0 33 30" fill="none" xmlns="http://www.w3.org/2000/svg">
<path d="M30.4923 14.7606L17.635 1.54568L16.7732 0.659446C16.5768 0.45885 16.3113 0.346268 16.0345 0.346268C15.7577 0.346268 15.4921 0.45885 15.2958 0.659446L1.57663 14.7606C1.37542 14.9667 1.2164 15.2121 1.10896 15.4825C1.00152 15.7528 0.947831 16.0426 0.951066 16.3346C0.964376 17.539 1.93932 18.5006 3.11059 18.5006H4.52477V29.6453H27.5442V18.5006H28.9883C29.5573 18.5006 30.093 18.2713 30.4957 17.8573C30.6939 17.6541 30.851 17.4124 30.9578 17.1463C31.0646 16.8803 31.119 16.5951 31.1179 16.3072C31.1179 15.7255 30.895 15.1746 30.4923 14.7606ZM17.8979 27.1816H14.1711V20.2012H17.8979V27.1816ZM25.1484 16.0369V27.1816H20.0274V19.38C20.0274 18.6237 19.4318 18.0112 18.6965 18.0112H13.3725C12.6371 18.0112 12.0415 18.6237 12.0415 19.38V27.1816H6.92054V16.0369H3.72617L16.0378 3.3866L16.8065 4.17703L28.3461 16.0369H25.1484Z" fill="#EBEBEB"/>
</svg>
