<svg width="35" height="30" viewBox="0 0 35 30" fill="none" xmlns="http://www.w3.org/2000/svg">
<g clip-path="url(#clip0)">
<path d="M20.752 3.91305L23.7357 7.17391H30.3389V26.7391H4.25196V7.17391H10.8552L13.8389 3.91305H20.752ZM22.1867 0.652176H12.4041L9.42044 3.91305H4.25196C2.45848 3.91305 0.991089 5.38044 0.991089 7.17391V26.7391C0.991089 28.5326 2.45848 30 4.25196 30H30.3389C32.1324 30 33.5998 28.5326 33.5998 26.7391V7.17391C33.5998 5.38044 32.1324 3.91305 30.3389 3.91305H25.1704L22.1867 0.652176ZM17.2954 12.0652C19.9857 12.0652 22.1867 14.2663 22.1867 16.9565C22.1867 19.6467 19.9857 21.8478 17.2954 21.8478C14.6052 21.8478 12.4041 19.6467 12.4041 16.9565C12.4041 14.2663 14.6052 12.0652 17.2954 12.0652ZM17.2954 8.80435C12.7954 8.80435 9.14326 12.4565 9.14326 16.9565C9.14326 21.4565 12.7954 25.1087 17.2954 25.1087C21.7954 25.1087 25.4476 21.4565 25.4476 16.9565C25.4476 12.4565 21.7954 8.80435 17.2954 8.80435Z" fill="#EBEBEB"/>
</g>
<defs>
<clipPath id="clip0">
<rect width="34" height="30" fill="white" transform="translate(0.137939)"/>
</clipPath>
</defs>
</svg>
