<svg width="36" height="30" viewBox="0 0 36 30" fill="none" xmlns="http://www.w3.org/2000/svg">
<g clip-path="url(#clip0)">
<path d="M14.5944 21.5V19.875H2.60302L2.58587 26.375C2.58587 28.1788 4.11267 29.625 6.01688 29.625H30.0339C31.9382 29.625 33.465 28.1788 33.465 26.375V19.875H21.4564V21.5H14.5944ZM31.7494 6.875H24.8703V3.625L21.4393 0.375H14.5772L11.1462 3.625V6.875H4.30137C2.41432 6.875 0.870361 8.3375 0.870361 10.125V15C0.870361 16.8038 2.39716 18.25 4.30137 18.25H14.5944V15H21.4564V18.25H31.7494C33.6365 18.25 35.1805 16.7875 35.1805 15V10.125C35.1805 8.3375 33.6365 6.875 31.7494 6.875ZM21.4564 6.875H14.5944V3.625H21.4564V6.875Z" fill="#EBEBEB"/>
</g>
<defs>
<clipPath id="clip0">
<rect width="35.7815" height="30" fill="white"/>
</clipPath>
</defs>
</svg>
