<svg width="37" height="30" viewBox="0 0 37 30" fill="none" xmlns="http://www.w3.org/2000/svg">
<g clip-path="url(#clip0)">
<path d="M33.8654 0.8871H3.3995C1.72387 0.8871 0.352905 2.29839 0.352905 4.0233V25.9767C0.352905 27.7016 1.72387 29.1129 3.3995 29.1129H33.8654C35.5411 29.1129 36.8968 27.7016 36.8968 25.9767L36.912 4.0233C36.912 2.29839 35.5411 0.8871 33.8654 0.8871ZM33.8654 25.9767H3.3995V4.0233H33.8654V25.9767ZM32.3422 5.5914H21.6791V13.4319H32.3422V5.5914ZM30.8189 8.7276L27.0106 11.4718L23.2024 8.7276V7.1595L27.0106 9.90368L30.8189 7.1595V8.7276ZM14.0626 15C16.576 15 18.6325 12.8831 18.6325 10.2957C18.6325 7.70834 16.576 5.5914 14.0626 5.5914C11.5491 5.5914 9.49269 7.70834 9.49269 10.2957C9.49269 12.8831 11.5491 15 14.0626 15ZM14.0626 8.7276C14.9004 8.7276 15.5859 9.43325 15.5859 10.2957C15.5859 11.1582 14.9004 11.8638 14.0626 11.8638C13.2248 11.8638 12.5393 11.1582 12.5393 10.2957C12.5393 9.43325 13.2248 8.7276 14.0626 8.7276ZM23.2024 22.1976C23.2024 18.2773 17.1549 16.5838 14.0626 16.5838C10.9703 16.5838 4.9228 18.2773 4.9228 22.1976V24.4086H23.2024V22.1976ZM8.70057 21.2724C9.82782 20.4884 12.0823 19.7043 14.0626 19.7043C16.0429 19.7043 18.2821 20.4727 19.4246 21.2724H8.70057Z" fill="#EBEBEB"/>
</g>
<defs>
<clipPath id="clip0">
<rect width="36.7742" height="30" fill="white" transform="translate(0.137939)"/>
</clipPath>
</defs>
</svg>
