<svg width="31" height="30" viewBox="0 0 31 30" fill="none" xmlns="http://www.w3.org/2000/svg">
<g clip-path="url(#clip0)">
<path fill-rule="evenodd" clip-rule="evenodd" d="M24.6101 3.29839H4.83594C4.3547 3.29839 3.89317 3.48956 3.55288 3.82985C3.2126 4.17013 3.02143 4.63166 3.02143 5.1129V24.8871C3.02143 25.3683 3.2126 25.8299 3.55289 26.1702C3.89317 26.5104 4.3547 26.7016 4.83594 26.7016H24.6101C25.0914 26.7016 25.5529 26.5104 25.8932 26.1702C26.2335 25.8299 26.4247 25.3683 26.4247 24.8871V5.1129C26.4247 4.63166 26.2335 4.17013 25.8932 3.82985C25.5529 3.48956 25.0914 3.29839 24.6101 3.29839ZM3.83594 0.483871C2.87346 0.483871 1.9504 0.866215 1.26983 1.54679C0.589253 2.22737 0.206909 3.15042 0.206909 4.1129L0.206909 25.8871C0.206909 26.8496 0.589253 27.7726 1.26983 28.4532C1.9504 29.1338 2.87346 29.5161 3.83594 29.5161H25.6101C26.5726 29.5161 27.4957 29.1338 28.1762 28.4532C28.8568 27.7726 29.2392 26.8496 29.2392 25.8871V4.1129C29.2392 3.15042 28.8568 2.22737 28.1762 1.54679C27.4957 0.866215 26.5726 0.483871 25.6101 0.483871L3.83594 0.483871Z" fill="#EBEBEB"/>
<path d="M16.4105 12.4378L12.2553 12.9586L12.1065 13.6481L12.923 13.7987C13.4565 13.9257 13.5617 14.118 13.4456 14.6497L12.1065 20.9424C11.7545 22.57 12.297 23.3358 13.5726 23.3358C14.5615 23.3358 15.7101 22.8785 16.2309 22.2507L16.3906 21.4959C16.0277 21.8152 15.4978 21.9422 15.1458 21.9422C14.6468 21.9422 14.4654 21.592 14.5942 20.9751L16.4105 12.4378Z" fill="#EBEBEB"/>
<path d="M14.7231 10.4637C15.7252 10.4637 16.5376 9.65132 16.5376 8.64919C16.5376 7.64706 15.7252 6.83467 14.7231 6.83467C13.721 6.83467 12.9086 7.64706 12.9086 8.64919C12.9086 9.65132 13.721 10.4637 14.7231 10.4637Z" fill="#EBEBEB"/>
</g>
<defs>
<clipPath id="clip0">
<rect width="30" height="30" fill="white" transform="translate(0.137939)"/>
</clipPath>
</defs>
</svg>
