<svg width="17" height="30" viewBox="0 0 17 30" fill="none" xmlns="http://www.w3.org/2000/svg">
<g clip-path="url(#clip0)">
<path d="M13.0208 0.9375H3.64581C2.09251 0.9375 0.833313 2.1967 0.833313 3.75V26.25C0.833313 27.8033 2.09251 29.0625 3.64581 29.0625H13.0208C14.5741 29.0625 15.8333 27.8033 15.8333 26.25V3.75C15.8333 2.1967 14.5741 0.9375 13.0208 0.9375Z" stroke="#EBEBEB" stroke-linecap="round" stroke-linejoin="round"/>
<path d="M3.64581 0.9375H5.05206C5.17638 0.9375 5.29561 0.986886 5.38352 1.07479C5.47143 1.1627 5.52081 1.28193 5.52081 1.40625C5.52081 1.65489 5.61959 1.89335 5.7954 2.06916C5.97122 2.24498 6.20967 2.34375 6.45831 2.34375H10.2083C10.457 2.34375 10.6954 2.24498 10.8712 2.06916C11.047 1.89335 11.1458 1.65489 11.1458 1.40625C11.1458 1.28193 11.1952 1.1627 11.2831 1.07479C11.371 0.986886 11.4902 0.9375 11.6146 0.9375H13.0208" stroke="#EBEBEB" stroke-linecap="round" stroke-linejoin="round"/>
</g>
<defs>
<clipPath id="clip0">
<rect width="16.6667" height="30" fill="white"/>
</clipPath>
</defs>
</svg>
