<?xml version="1.0" encoding="utf-8"?>
<!-- Generator: Adobe Illustrator 22.1.0, SVG Export Plug-In . SVG Version: 6.00 Build 0)  -->
<svg version="1.1" id="Capa_1" xmlns="http://www.w3.org/2000/svg" xmlns:xlink="http://www.w3.org/1999/xlink" x="0px" y="0px"
	 viewBox="0 0 284.8 284.8" style="enable-background:new 0 0 284.8 284.8;" xml:space="preserve">
<style type="text/css">
	.st0{fill:#696969;}
</style>
<g>
	<g>
		<path class="st0" d="M228.1,28.9c0,7.7-3,15-8.5,20.4l-93.1,93l93,93c5.5,5.5,8.5,12.7,8.5,20.4c0,7.7-3,15-8.5,20.5
			c-11.3,11.3-29.6,11.3-40.9,0L65.2,162.9c-5.5-5.5-8.5-12.7-8.5-20.4s3-15,8.5-20.4L178.7,8.5C184.2,3,191.4,0,199.2,0
			c7.7,0,15,3,20.4,8.5C225.1,13.9,228.1,21.2,228.1,28.9z M108.4,142.4L210.5,40.3c6.1-6.1,6.1-16.6,0-22.7c-3-3-7.1-4.7-11.4-4.7
			s-8.3,1.7-11.4,4.7L74,131.3c-5.8,6.1-5.7,16.5,0.3,22.4l113.5,113.5c6.3,6.3,16.5,6.3,22.7,0c6.1-6.1,6.1-16.7,0-22.7
			L108.4,142.4z"/>
	</g>
</g>
</svg>
