<?xml version="1.0" encoding="utf-8"?>
<!-- Generator: Adobe Illustrator 22.1.0, SVG Export Plug-In . SVG Version: 6.00 Build 0)  -->
<svg version="1.1" id="Capa_1" xmlns="http://www.w3.org/2000/svg" xmlns:xlink="http://www.w3.org/1999/xlink" x="0px" y="0px"
	 viewBox="0 0 284.8 284.8" style="enable-background:new 0 0 284.8 284.8;" xml:space="preserve">
<style type="text/css">
	.st0{fill:#696969;}
</style>
<g>
	<g>
		<path class="st0" d="M56.7,255.9c0-7.7,3-15,8.5-20.4l93.1-93l-93-93C59.8,44,56.8,36.8,56.8,29s3-15,8.5-20.5
			c11.3-11.3,29.6-11.3,40.9,0L219.6,122c5.5,5.5,8.5,12.7,8.5,20.4s-3,15-8.5,20.4L106.1,276.3c-5.5,5.5-12.7,8.5-20.4,8.5
			s-15-3-20.4-8.5C59.7,270.9,56.7,263.6,56.7,255.9z M176.4,142.4L74.3,244.5c-6.1,6.1-6.1,16.6,0,22.7c3,3,7.1,4.7,11.4,4.7
			s8.3-1.7,11.4-4.7l113.8-113.8c5.8-6.1,5.7-16.5-0.3-22.4L97,17.5c-6.3-6.3-16.5-6.3-22.7,0c-6.1,6.1-6.1,16.7,0,22.7L176.4,142.4
			z"/>
	</g>
</g>
</svg>
