<svg width="60" height="60" viewBox="0 0 60 60" fill="none" xmlns="http://www.w3.org/2000/svg">
<circle cx="30" cy="30" r="29" stroke="#696969" stroke-width="2"/>
<path d="M30.5 13.625C41.3731 13.625 50.1875 20.495 50.1875 28.9719C50.1875 37.4469 41.3731 44.3169 30.5 44.3169C29.4173 44.3174 28.3357 44.2486 27.2619 44.1106L18.9969 49.5162C18.0575 50.0131 17.7256 49.9587 18.1119 48.7419L19.7844 41.8456C14.3844 39.1081 10.8125 34.3644 10.8125 28.9719C10.8125 20.4969 19.6269 13.625 30.5 13.625ZM41.5756 28.7375L44.3319 26.0675C44.4909 25.9023 44.5796 25.6819 44.5794 25.4526C44.5791 25.2233 44.4898 25.0031 44.3304 24.8383C44.171 24.6735 43.9538 24.577 43.7246 24.5692C43.4955 24.5613 43.2722 24.6427 43.1019 24.7962L39.4869 28.295V25.4037C39.4869 25.169 39.3936 24.9439 39.2277 24.778C39.0617 24.612 38.8366 24.5188 38.6019 24.5188C38.3672 24.5188 38.1421 24.612 37.9761 24.778C37.8101 24.9439 37.7169 25.169 37.7169 25.4037V30.1981C37.6837 30.3349 37.6837 30.4776 37.7169 30.6144V33.3125C37.7169 33.5472 37.8101 33.7723 37.9761 33.9383C38.1421 34.1043 38.3672 34.1975 38.6019 34.1975C38.8366 34.1975 39.0617 34.1043 39.2277 33.9383C39.3936 33.7723 39.4869 33.5472 39.4869 33.3125V30.7569L40.2875 29.9825L42.965 33.7944C43.0319 33.8895 43.1168 33.9706 43.215 34.0329C43.3132 34.0953 43.4227 34.1377 43.5372 34.1577C43.6518 34.1777 43.7692 34.175 43.8827 34.1496C43.9962 34.1243 44.1036 34.0768 44.1987 34.01C44.2939 33.9431 44.375 33.8582 44.4373 33.76C44.4997 33.6618 44.5421 33.5523 44.5621 33.4378C44.5821 33.3232 44.5794 33.2058 44.554 33.0923C44.5287 32.9788 44.4812 32.8714 44.4144 32.7762L41.5756 28.7356V28.7375ZM36.0294 32.345H33.2919V25.4319C33.2814 25.2044 33.1837 24.9898 33.019 24.8326C32.8544 24.6753 32.6355 24.5876 32.4078 24.5876C32.1801 24.5876 31.9612 24.6753 31.7966 24.8326C31.6319 24.9898 31.5342 25.2044 31.5237 25.4319V33.23C31.5237 33.7175 31.9175 34.115 32.4069 34.115H36.0294C36.2641 34.115 36.4892 34.0218 36.6552 33.8558C36.8211 33.6898 36.9144 33.4647 36.9144 33.23C36.9144 32.9953 36.8211 32.7702 36.6552 32.6042C36.4892 32.4382 36.2641 32.345 36.0294 32.345ZM25.0475 30.2975L26.3525 27.0969L27.5487 30.2975H25.0475ZM29.7781 31.2125L29.7819 31.1825C29.7814 30.9595 29.6963 30.7451 29.5437 30.5825L27.5825 25.3325C27.5003 25.0823 27.3437 24.8632 27.1336 24.7044C26.9235 24.5456 26.67 24.4546 26.4069 24.4438C26.1418 24.4426 25.8827 24.5222 25.664 24.6719C25.4453 24.8216 25.2773 25.0344 25.1825 25.2819L22.0681 32.9225C22.0242 33.0301 22.0018 33.1453 22.0024 33.2615C22.003 33.3778 22.0264 33.4927 22.0715 33.5999C22.1165 33.7071 22.1821 33.8043 22.2647 33.8861C22.3473 33.9679 22.4452 34.0326 22.5528 34.0766C22.6604 34.1205 22.7756 34.1428 22.8919 34.1423C23.0081 34.1417 23.1231 34.1182 23.2302 34.0732C23.3374 34.0282 23.4346 33.9625 23.5164 33.88C23.5982 33.7974 23.6629 33.6995 23.7069 33.5919L24.3256 32.0675H28.2069L28.7675 33.5675C28.8056 33.6796 28.8658 33.783 28.9446 33.8714C29.0234 33.9598 29.1191 34.0315 29.2261 34.0823C29.3331 34.133 29.4492 34.1618 29.5675 34.1668C29.6858 34.1719 29.804 34.1532 29.9149 34.1118C30.0259 34.0704 30.1274 34.0071 30.2134 33.9257C30.2995 33.8444 30.3683 33.7466 30.4159 33.6381C30.4634 33.5297 30.4888 33.4128 30.4903 33.2944C30.4919 33.1759 30.4697 33.0584 30.425 32.9487L29.7781 31.2125ZM23.5494 25.4412C23.5494 25.2069 23.4564 24.982 23.2908 24.8161C23.1253 24.6502 22.9006 24.5567 22.6663 24.5562H16.5819C16.3472 24.5562 16.1221 24.6495 15.9561 24.8155C15.7901 24.9814 15.6969 25.2065 15.6969 25.4412C15.6969 25.676 15.7901 25.9011 15.9561 26.067C16.1221 26.233 16.3472 26.3262 16.5819 26.3262H18.7569V33.3312C18.7569 33.566 18.8501 33.7911 19.0161 33.957C19.1821 34.123 19.4072 34.2162 19.6419 34.2162C19.8766 34.2162 20.1017 34.123 20.2677 33.957C20.4336 33.7911 20.5269 33.566 20.5269 33.3312V26.3262H22.6644C22.8991 26.3262 23.1242 26.233 23.2902 26.067C23.4561 25.9011 23.5494 25.676 23.5494 25.4412Z" fill="#696969"/>
</svg>
