<svg width="60" height="60" viewBox="0 0 60 60" fill="none" xmlns="http://www.w3.org/2000/svg">
<circle cx="30" cy="30" r="29" stroke="#696969" stroke-width="2"/>
<path d="M39 21V16.5L30 12L21 16.5V18.75L12 23.25V34.5L39 48L48 43.5V25.5L39 21ZM21 36.48L14.25 33.105V25.68L21 29.1225V36.48ZM21 26.6025L15.735 23.9025L21 21.27V26.6025ZM30 40.98L23.25 37.605V18.9075L30 22.3725V40.98ZM24.735 17.1525L30 14.52L35.265 17.1525L30 19.8525L24.735 17.1525ZM39 45.48L32.25 42.105V27.9075L39 31.3725V45.48ZM39 28.8525L33.735 26.1525L39 23.52L44.265 26.1525L39 28.8525Z" fill="#696969"/>
</svg>
