<svg width="128" height="92" viewBox="0 0 128 92" fill="none" xmlns="http://www.w3.org/2000/svg">
<path d="M20.8997 41.4517C21.1828 41.5891 21.4198 41.8053 21.5821 42.074C21.7445 42.3427 21.8251 42.6524 21.8144 42.9657C21.8246 43.3945 21.729 43.8192 21.536 44.2027C21.3556 44.5529 21.1052 44.8627 20.8002 45.1131C20.4816 45.3634 20.1304 45.5698 19.7563 45.7267C19.3788 45.8858 18.9856 46.0052 18.5831 46.0829V46.1126C18.9009 46.1554 19.2138 46.2283 19.5177 46.3303C19.8274 46.4318 20.1218 46.575 20.3926 46.7558C20.6683 46.9363 20.8995 47.1765 21.0687 47.4584C21.2436 47.7588 21.333 48.1009 21.3272 48.448C21.3426 48.994 21.2012 49.533 20.9195 50.0017C20.6725 50.4355 20.3331 50.8104 19.9253 51.1001C19.4812 51.3924 18.9951 51.6159 18.4837 51.7632C17.9686 51.9047 17.4371 51.9779 16.9028 51.9809H11.4444L11.5637 51.4663L12.1305 51.397C12.3133 51.3776 12.4934 51.3377 12.6674 51.2783C12.8277 51.2127 12.9706 51.1111 13.0849 50.9814C13.1878 50.8434 13.259 50.6846 13.2937 50.5163L15.153 42.5105V42.3522C15.1579 42.3028 15.1579 42.2531 15.153 42.2037C15.1573 42.1035 15.1332 42.004 15.0834 41.9168C15.0298 41.8263 14.9501 41.7538 14.8547 41.7089C14.7039 41.6294 14.5435 41.5696 14.3774 41.5308C14.2206 41.4946 14.0609 41.4715 13.9002 41.4615L14.0295 40.947H18.9211C19.2545 40.9477 19.5872 40.9775 19.9154 41.036C20.2655 41.1156 20.5988 41.2564 20.8997 41.4517ZM18.7322 50.358C18.957 50.058 19.1316 49.7238 19.2492 49.3684C19.3572 49.0221 19.4141 48.6621 19.4182 48.2996C19.4312 48.0517 19.3869 47.8041 19.2886 47.5759C19.1904 47.3478 19.0408 47.1451 18.8515 46.9835C18.3982 46.6429 17.8376 46.4745 17.2707 46.5084H16.4256H15.8986L15.0138 50.3184C15.0099 50.3876 15.0099 50.457 15.0138 50.5262C15.0088 50.5854 15.0088 50.645 15.0138 50.7043C15.0116 50.8333 15.0509 50.9595 15.1261 51.0646C15.2012 51.1697 15.3082 51.248 15.4313 51.2882C15.7668 51.4183 16.1254 51.4789 16.4852 51.4663C16.9634 51.4783 17.4363 51.3657 17.8573 51.1397C18.2024 50.9495 18.5011 50.686 18.7322 50.3678V50.358ZM19.2492 45.0241C19.4804 44.756 19.6592 44.4472 19.7762 44.1137C19.8842 43.7643 19.9378 43.4005 19.9353 43.035C19.9433 42.7923 19.8921 42.5512 19.7861 42.3324C19.6916 42.1484 19.5513 41.9917 19.3785 41.8772C19.2011 41.7662 19.0061 41.6859 18.8018 41.6397C18.5854 41.5994 18.3657 41.5795 18.1456 41.5803H17.569H17.0321L16.0378 45.8751H17.0321C17.4856 45.8887 17.9368 45.8043 18.3544 45.6277C18.6947 45.5011 19.0009 45.2979 19.2492 45.034V45.0241Z" fill="#CC2222"/>
<path d="M21.9436 52.0503L22.053 51.5357L22.6097 51.4862C22.7832 51.4819 22.9546 51.4484 23.1168 51.3873C23.2859 51.3383 23.4353 51.2379 23.5443 51.1003C23.6493 50.9561 23.7206 50.7904 23.7531 50.6154L25.6223 42.5799C25.6264 42.5371 25.6264 42.4941 25.6223 42.4513C25.6272 42.4052 25.6272 42.3588 25.6223 42.3127C25.6274 42.2093 25.6033 42.1064 25.5527 42.0159C25.4986 41.9197 25.415 41.8434 25.3141 41.7982C25.1668 41.7187 25.0097 41.6588 24.8468 41.62C24.6841 41.5755 24.5177 41.5456 24.3497 41.531L24.469 41.0164H29.0524L28.9331 41.531C28.7455 41.5337 28.5588 41.557 28.3763 41.6002L27.8693 41.7091C27.6876 41.7598 27.5315 41.8763 27.4318 42.0357C27.3396 42.1784 27.2724 42.3357 27.233 42.5008L25.6819 49.1409L32.582 42.6195C32.5791 42.5701 32.5791 42.5205 32.582 42.4711C32.5864 42.4118 32.5864 42.3523 32.582 42.293C32.5851 42.1897 32.5611 42.0873 32.5124 41.9961C32.4583 41.8999 32.3747 41.8236 32.2738 41.7784C32.1154 41.7051 31.9484 41.6519 31.7766 41.62C31.6066 41.5784 31.4338 41.5487 31.2596 41.531L31.369 41.0164H35.9624L35.8431 41.531C35.6588 41.5344 35.4755 41.5576 35.2962 41.6002L34.7991 41.7091C34.6191 41.7631 34.4641 41.8788 34.3617 42.0357C34.2735 42.1805 34.2065 42.3371 34.1628 42.5008L32.4229 50.5263V50.6649C32.4229 50.7242 32.4229 50.7638 32.4229 50.8034C32.4231 50.9044 32.4506 51.0035 32.5024 51.0904C32.5562 51.1824 32.6312 51.2604 32.7212 51.318C32.8583 51.3792 33.0016 51.4256 33.1487 51.4565C33.3217 51.498 33.498 51.5245 33.6756 51.5357L33.5563 52.0503H28.9729L29.0922 51.5357L29.6589 51.4862C29.8323 51.4819 30.0037 51.4484 30.166 51.3873C30.335 51.3383 30.4845 51.2379 30.5935 51.1003C30.6984 50.9561 30.7698 50.7904 30.8023 50.6154L32.403 43.807L25.493 50.3383C25.4687 50.4156 25.452 50.4952 25.4433 50.5758C25.4361 50.6482 25.4361 50.7211 25.4433 50.7935C25.4439 50.8996 25.4677 51.0043 25.5129 51.1003C25.5683 51.199 25.6561 51.2758 25.7615 51.318C25.9117 51.3811 26.0684 51.4275 26.2288 51.4565C26.4029 51.4924 26.5788 51.5189 26.7557 51.5357L26.6364 52.0503H21.9436Z" fill="#CC2222"/>
<path d="M44.9404 48.2008C44.9545 48.7688 44.8276 49.3315 44.5709 49.839C44.3142 50.3465 43.9357 50.7831 43.4689 51.1102C43.0096 51.4376 42.4941 51.6791 41.9478 51.8227C41.3706 51.9763 40.7755 52.0528 40.178 52.0503H34.998L35.1173 51.5357L35.694 51.4565C35.8669 51.4356 36.0369 51.3958 36.2011 51.3378C36.3723 51.2772 36.5236 51.1711 36.6385 51.031C36.7461 50.8996 36.818 50.7429 36.8473 50.5758L38.7065 42.5799C38.7065 42.5304 38.7065 42.4909 38.7065 42.4513C38.7065 42.4117 38.7065 42.3622 38.7065 42.3127C38.7091 42.2138 38.6887 42.1156 38.6469 42.0258C38.5991 41.9294 38.5228 41.8499 38.4281 41.7982C38.2744 41.7078 38.1063 41.6442 37.931 41.6101C37.7706 41.5728 37.6079 41.5464 37.4439 41.531L37.5632 41.0164H45.8651L45.2089 43.8268H44.6123C44.5821 43.3265 44.4679 42.8348 44.2743 42.3721C44.2184 42.1904 44.1139 42.0272 43.9721 41.8999C43.8302 41.7727 43.6563 41.6862 43.4689 41.6497L42.9122 41.6002H40.5658L39.5715 45.7169H40.2277H41.0331C41.5365 45.7124 42.0391 45.7555 42.5344 45.8456C42.9638 45.9209 43.3773 46.0681 43.7573 46.281C44.0955 46.4663 44.3798 46.7357 44.5825 47.0628C44.8064 47.4013 44.9304 47.7956 44.9404 48.2008ZM43.0215 48.2008C43.038 47.9366 42.9927 47.6722 42.8892 47.4284C42.7857 47.1846 42.6268 46.968 42.425 46.7956C41.9078 46.438 41.2834 46.2669 40.6552 46.3107C40.347 46.3107 40.1084 46.3107 39.9195 46.3107H39.492L38.4977 50.4274C38.4977 50.4274 38.4977 50.5164 38.4977 50.5758C38.4977 50.6352 38.4977 50.6748 38.4977 50.7242C38.4949 50.8341 38.5232 50.9425 38.5795 51.037C38.6358 51.1316 38.7177 51.2084 38.8159 51.2586C39.1487 51.4101 39.5148 51.4748 39.8797 51.4467C40.3702 51.4571 40.8566 51.3555 41.3015 51.1498C41.6882 50.9632 42.028 50.6927 42.2957 50.3581C42.5363 50.0636 42.7215 49.7284 42.8426 49.3685C42.9652 48.9914 43.0256 48.5971 43.0215 48.2008Z" fill="#CC2222"/>
<path d="M55.9566 43.2327C55.9673 43.8201 55.8234 44.4001 55.539 44.915C55.2722 45.395 54.9063 45.8132 54.4652 46.1421C54.0028 46.4902 53.4806 46.7518 52.9241 46.9139C52.3449 47.094 51.7413 47.1841 51.1345 47.1811H49.7823L48.9969 50.5853V50.7338V50.8624C48.9947 50.9677 49.015 51.0723 49.0565 51.1692C49.1103 51.267 49.199 51.3411 49.3051 51.377C49.4589 51.4316 49.6195 51.4649 49.7823 51.476L50.4187 51.5353L50.3192 52.0499H45.5568L45.6761 51.5353L46.2329 51.476C46.4088 51.4652 46.5826 51.432 46.7499 51.377C46.9217 51.3177 47.071 51.2071 47.1774 51.0603C47.2754 50.9171 47.3431 50.7554 47.3763 50.5853L49.2454 42.54V42.3915C49.2454 42.3321 49.2454 42.2728 49.2454 42.2233C49.2486 42.12 49.2246 42.0176 49.1759 41.9264C49.1272 41.8343 49.0456 41.7636 48.9472 41.7285C48.7728 41.6661 48.5931 41.6197 48.4103 41.5899L47.9032 41.5306L48.0126 41.016H52.9838C53.7539 40.9839 54.515 41.1914 55.1612 41.6098C55.4193 41.7927 55.6273 42.0371 55.7662 42.3205C55.9051 42.604 55.9705 42.9176 55.9566 43.2327ZM53.461 45.3405C53.667 45.0391 53.8184 44.7042 53.9084 44.3509C53.9975 44.0284 54.0443 43.6958 54.0476 43.3613C54.046 43.1335 54.0126 42.907 53.9482 42.6884C53.8812 42.4738 53.7656 42.2774 53.6102 42.1144C53.4456 41.9373 53.2411 41.8017 53.0136 41.7186C52.7175 41.6117 52.4038 41.5614 52.089 41.5702H51.0947L49.9613 46.5181H50.8462C51.3819 46.5316 51.9142 46.4304 52.4071 46.2212C52.8327 46.0291 53.1973 45.7245 53.461 45.3405Z" fill="#CC2222"/>
<path d="M67.0026 45.2613C67.0098 46.2154 66.8238 47.1611 66.4558 48.0421C66.1142 48.8625 65.6295 49.6163 65.0241 50.2687C64.4346 50.8867 63.7373 51.393 62.966 51.7629C62.2151 52.1215 61.3928 52.3075 60.56 52.3072C59.9805 52.3318 59.4024 52.2333 58.8641 52.0183C58.3258 51.8033 57.8397 51.4768 57.438 51.0603C56.6298 50.1868 56.201 49.0309 56.245 47.8442C56.24 46.8839 56.4258 45.9321 56.7918 45.0436C57.1363 44.224 57.6169 43.468 58.2136 42.8072C58.7942 42.1767 59.4934 41.6656 60.2716 41.303C61.0258 40.9424 61.851 40.7531 62.6876 40.7488C63.2636 40.7268 63.8377 40.8246 64.3736 41.0359C64.9094 41.2472 65.3951 41.5673 65.7996 41.9759C66.2115 42.415 66.5304 42.9323 66.7371 43.4968C66.9437 44.0612 67.0341 44.6614 67.0026 45.2613ZM64.0199 49.4077C64.4056 48.7252 64.6934 47.9925 64.875 47.2306C65.0639 46.4361 65.1606 45.6226 65.1633 44.8061C65.2075 43.9306 64.9782 43.0629 64.5071 42.3223C64.2816 42.0133 63.9806 41.7666 63.6327 41.6056C63.2848 41.4445 62.9013 41.3744 62.5186 41.4019C61.8519 41.4023 61.2019 41.6099 60.6594 41.9957C60.0316 42.4502 59.5179 43.0428 59.1581 43.7275C58.7787 44.4201 58.5008 45.1633 58.3329 45.9343C58.1531 46.6765 58.0597 47.4369 58.0545 48.2004C58.0022 49.0981 58.239 49.9891 58.7306 50.7436C58.9504 51.0433 59.242 51.2836 59.5788 51.4426C59.9157 51.6016 60.2871 51.6743 60.6594 51.6541C61.355 51.6613 62.0334 51.4386 62.5882 51.0207C63.1745 50.5897 63.6625 50.04 64.0199 49.4077Z" fill="#CC2222"/>
<path d="M79.2914 45.8159C79.2876 46.3902 79.1832 46.9595 78.9832 47.4982C78.7683 48.0498 78.428 48.5443 77.9889 48.943C77.5022 49.383 76.9305 49.7197 76.3087 49.9326C75.5085 50.2001 74.6669 50.3241 73.8231 50.2987H73.5148L73.4154 50.6946C73.4108 50.7803 73.4108 50.8662 73.4154 50.9519C73.416 51.0497 73.4435 51.1456 73.495 51.229C73.5575 51.3168 73.6437 51.3854 73.7435 51.4269C73.892 51.4743 74.0454 51.5042 74.2009 51.5159L74.8472 51.5753L74.7278 52.08H70.0052L70.1245 51.5753L70.6713 51.5159C70.8468 51.5084 71.0205 51.4785 71.1883 51.4269C71.3521 51.3672 71.4989 51.2687 71.6159 51.1399C71.7184 51.0103 71.7868 50.8572 71.8147 50.6946L71.9141 50.2987C70.8516 50.3742 69.7962 50.0766 68.9314 49.4576C68.5829 49.1766 68.3059 48.8178 68.1228 48.4103C67.9397 48.0028 67.8556 47.5581 67.8775 47.1123C67.872 46.5339 67.9766 45.9597 68.1857 45.4201C68.4035 44.8729 68.7435 44.3822 69.18 43.9852C69.6703 43.5398 70.2497 43.2026 70.8801 42.9956C71.6763 42.7237 72.5142 42.593 73.3558 42.6096H73.664C73.664 42.481 73.7236 42.382 73.7336 42.3128C73.739 42.2436 73.739 42.1741 73.7336 42.105C73.7373 42.0034 73.7095 41.9032 73.6541 41.818C73.5888 41.7417 73.5073 41.6808 73.4154 41.6399C73.2606 41.5664 73.0968 41.5132 72.9282 41.4815C72.7616 41.4417 72.5921 41.4152 72.4212 41.4023L72.5405 40.8878H77.1637L77.0444 41.4023C76.8657 41.389 76.6862 41.389 76.5075 41.4023C76.3221 41.4204 76.1389 41.4569 75.9607 41.5112C75.787 41.5616 75.6338 41.6655 75.5232 41.8081C75.4352 41.9423 75.3681 42.0892 75.3244 42.2435L75.2548 42.5701C76.3207 42.4907 77.3796 42.7964 78.2375 43.431C78.5904 43.7171 78.87 44.0824 79.0532 44.4971C79.2364 44.9117 79.3181 45.3637 79.2914 45.8159ZM73.5447 43.2034H73.0277C72.495 43.1897 71.9699 43.3307 71.5164 43.6091C71.1023 43.8621 70.7466 44.1994 70.4725 44.5987C70.209 45.003 70.0142 45.4476 69.8958 45.9149C69.7723 46.3665 69.7088 46.8323 69.7069 47.3003C69.7028 47.579 69.7261 47.8574 69.7765 48.1315C69.8447 48.4112 69.9699 48.674 70.1444 48.9034C70.3325 49.1563 70.5823 49.3572 70.8702 49.4873C71.2359 49.6491 71.6334 49.7269 72.0334 49.7149L73.5447 43.2034ZM76.7362 48.3196C76.9905 47.9188 77.1817 47.4816 77.3029 47.0232C77.4323 46.5624 77.4992 46.0865 77.5018 45.6081C77.501 45.3352 77.471 45.0632 77.4123 44.7966C77.3592 44.5126 77.24 44.2448 77.0643 44.0149C76.878 43.7681 76.6362 43.5682 76.3584 43.431C75.9863 43.2672 75.5818 43.1894 75.1752 43.2034L73.664 49.7545H74.181C74.7167 49.7678 75.2449 49.6269 75.7022 49.3487C76.1196 49.0867 76.4729 48.735 76.7362 48.3196Z" fill="#767676"/>
<path d="M90.9539 45.2613C90.961 46.2154 90.7751 47.1611 90.4071 48.0421C90.0655 48.8625 89.5808 49.6163 88.9754 50.2687C88.3822 50.8868 87.6816 51.3931 86.9073 51.7629C86.1603 52.1226 85.341 52.3087 84.5112 52.3072C83.9318 52.3318 83.3536 52.2333 82.8154 52.0183C82.2771 51.8033 81.791 51.4768 81.3893 51.0603C80.5811 50.1868 80.1522 49.0309 80.1962 47.8442C80.1864 46.8834 80.3724 45.9307 80.743 45.0436C81.0835 44.222 81.5646 43.4652 82.1648 42.8072C82.7454 42.1767 83.4447 41.6656 84.2229 41.303C84.977 40.9424 85.8023 40.7531 86.6389 40.7488C87.2148 40.7268 87.789 40.8246 88.3248 41.0359C88.8607 41.2472 89.3463 41.5673 89.7509 41.9759C90.1628 42.415 90.4816 42.9323 90.6883 43.4968C90.895 44.0612 90.9853 44.6614 90.9539 45.2613ZM87.9712 49.4077C88.3577 48.7267 88.6424 47.9933 88.8163 47.2306C89.0133 46.4373 89.1134 45.6233 89.1145 44.8061C89.1604 43.929 88.9274 43.0599 88.4484 42.3223C88.2249 42.0111 87.9243 41.7629 87.5759 41.6016C87.2274 41.4403 86.843 41.3715 86.4599 41.4019C85.7932 41.4023 85.1432 41.6099 84.6007 41.9957C83.9712 42.4483 83.4571 43.0414 83.0994 43.7275C82.72 44.4201 82.4421 45.1633 82.2742 45.9343C82.0945 46.6765 82.001 47.4369 81.9958 48.2004C81.9385 49.0986 82.1758 49.9911 82.6719 50.7436C82.8917 51.0433 83.1833 51.2836 83.5201 51.4426C83.857 51.6016 84.2284 51.6743 84.6007 51.6541C85.2936 51.6629 85.9693 51.4399 86.5196 51.0207C87.1125 50.5912 87.6072 50.0414 87.9712 49.4077Z" fill="#767676"/>
<path d="M101.354 43.2327C101.364 43.8201 101.22 44.4001 100.936 44.915C100.663 45.3933 100.294 45.8108 99.8523 46.1421C99.3911 46.4921 98.8685 46.7539 98.3112 46.914C97.7353 47.0933 97.135 47.1834 96.5316 47.1811H95.1794L94.384 50.5853C94.3785 50.6346 94.3785 50.6845 94.384 50.7338C94.3795 50.7765 94.3795 50.8196 94.384 50.8624C94.3818 50.9677 94.4021 51.0723 94.4437 51.1692C94.4996 51.2652 94.5875 51.3388 94.6922 51.377C94.846 51.4316 95.0065 51.4649 95.1694 51.476L95.8058 51.5353L95.6865 52.0499H90.924L91.0433 51.5353L91.6001 51.476C91.7792 51.465 91.9563 51.4318 92.1271 51.377C92.2975 51.3202 92.4443 51.2088 92.5447 51.0603C92.6459 50.9177 92.717 50.7561 92.7534 50.5853L94.6127 42.54V42.3915C94.6175 42.3355 94.6175 42.2793 94.6127 42.2233C94.6141 42.1213 94.5937 42.0201 94.553 41.9264C94.5028 41.8317 94.4171 41.7606 94.3144 41.7285C94.1438 41.6649 93.9673 41.6185 93.7875 41.59L93.2705 41.5306L93.3898 41.016H98.361C99.1315 40.9805 99.8936 41.1884 100.538 41.6098C100.799 41.7911 101.011 42.0346 101.153 42.3181C101.296 42.6016 101.364 42.9159 101.354 43.2327ZM98.8481 45.3405C99.0606 45.0415 99.2156 44.706 99.3055 44.3509C99.3915 44.028 99.435 43.6954 99.4347 43.3613C99.4381 43.1332 99.4045 42.906 99.3353 42.6884C99.2787 42.4897 99.1766 42.3068 99.037 42.154C98.8669 41.979 98.6597 41.8438 98.4306 41.7582C98.135 41.6494 97.8209 41.599 97.5059 41.6098H96.5117L95.3782 46.5577H96.2631C96.7988 46.5712 97.3311 46.47 97.8241 46.2608C98.2455 46.0559 98.6005 45.737 98.8481 45.3405Z" fill="#767676"/>
<path d="M116.556 41.0164L116.436 41.531C116.242 41.5346 116.049 41.5578 115.86 41.6002L115.343 41.7091C115.16 41.757 115.003 41.8742 114.905 42.0357C114.813 42.1784 114.746 42.3357 114.706 42.5008L112.827 50.5263C112.822 50.5724 112.822 50.6188 112.827 50.6649C112.823 50.7077 112.823 50.7507 112.827 50.7935C112.823 50.8938 112.847 50.9932 112.897 51.0805C112.955 51.1782 113.037 51.2598 113.135 51.318C113.281 51.3842 113.435 51.4308 113.593 51.4565C113.776 51.4949 113.962 51.5214 114.15 51.5357L114.03 52.0503H109.148L109.268 51.5357L109.974 51.4763C110.178 51.4654 110.38 51.422 110.57 51.3477C110.736 51.2592 110.884 51.1419 111.008 51.0013C111.122 50.8654 111.198 50.7013 111.226 50.5263L113.155 42.3127H113.066L106.991 51.8623H106.623L105.231 42.1148H105.152L103.581 48.8935C103.511 49.1706 103.461 49.4378 103.422 49.6951C103.386 49.9045 103.367 50.1161 103.362 50.3284C103.34 50.4727 103.34 50.6196 103.362 50.7638C103.392 50.8763 103.447 50.9809 103.521 51.0706C103.691 51.2174 103.897 51.3165 104.118 51.3576C104.349 51.4297 104.585 51.4892 104.824 51.5357L104.694 52.0503H100.21L100.339 51.5357L101.075 51.4268C101.315 51.3778 101.543 51.2874 101.751 51.1597C101.99 50.9851 102.175 50.749 102.288 50.4768C102.48 49.9932 102.626 49.493 102.726 48.9826L104.058 43.2627C104.086 43.1555 104.106 43.0463 104.118 42.9362C104.122 42.8406 104.122 42.7448 104.118 42.6492C104.12 42.5084 104.1 42.368 104.058 42.2336C104.019 42.1315 103.962 42.0375 103.889 41.9565C103.743 41.7987 103.552 41.6883 103.342 41.6398C103.135 41.5781 102.922 41.5415 102.706 41.531L102.825 41.0164H106.563L107.776 49.3091L112.081 42.382C112.241 42.1247 112.39 41.8476 112.529 41.5706C112.616 41.3974 112.693 41.2189 112.758 41.0362L116.556 41.0164Z" fill="#767676"/>
<path d="M73.6765 58.2725C74.0885 57.8251 74.6878 57.0298 75.0749 56.5451H70.5425C68.6622 58.1597 66.2452 59.0192 63.7627 58.9561C61.294 58.9379 58.9043 58.0881 56.9829 56.5451H52.7128C53.0633 57.078 53.447 57.5885 53.8615 58.0737L52.2258 61.1184L55.16 63.3056L57.5448 60.9941C58.7673 61.6045 60.077 62.0237 61.4279 62.2369L61.9772 65.642H65.6481L66.185 62.2617C67.4723 62.0489 68.7163 61.6292 69.8683 61.019L72.3654 63.4423L75.2996 61.2551L73.6765 58.2725Z" fill="#767676" stroke="white" stroke-width="0.25" stroke-linecap="round" stroke-linejoin="round"/>
<path d="M73.6765 33.7281C74.0885 34.1755 74.6878 34.9709 75.0749 35.468H70.5425C68.6622 33.8534 66.2452 32.9939 63.7627 33.057C61.294 33.0752 58.9043 33.925 56.9829 35.468H52.7128C53.0633 34.9312 53.447 34.4165 53.8615 33.927L52.2258 30.8823L55.16 28.6951L57.5448 31.0065C58.7673 30.3962 60.077 29.977 61.4279 29.7638L61.9772 26.3587H65.6481L66.185 29.739C67.4722 29.9522 68.7161 30.3719 69.8683 30.9817L72.3654 28.4962L75.2996 30.6834L73.6765 33.7281Z" fill="#767676" stroke="white" stroke-width="0.25" stroke-linecap="round" stroke-linejoin="round"/>
<path d="M82.5914 57.0669H127.016V59.8382H84.9886C79.8944 67.2076 72.2781 71.8306 63.7628 71.8306C55.2474 71.8306 47.5936 67.4686 42.5369 59.8506H0.9841V57.0669H44.8343C49.3666 64.6351 55.9466 68.8978 63.7128 68.8978C71.479 68.8978 78.034 64.399 82.5914 57.0669Z" fill="#767676" stroke="white" stroke-width="0.25" stroke-linecap="round" stroke-linejoin="round"/>
<path d="M82.5913 34.9461H118.476V32.1747H84.9886C79.8944 24.7929 72.2781 20.1699 63.7628 20.1699C55.2474 20.1699 47.5936 24.5319 42.5369 32.1499H9.61179V34.9088H44.9217C49.454 27.3281 56.034 23.0655 63.8002 23.0655C71.5664 23.0655 78.034 27.6139 82.5913 34.9461Z" fill="#767676" stroke="white" stroke-width="0.25" stroke-linecap="round" stroke-linejoin="round"/>
<path d="M87.5357 74.0801C89.3201 72.1796 90.898 70.0968 92.2429 67.8664H100.983L102.706 63.8151H85.5255C83.2179 67.4631 80.0188 70.4694 76.2271 72.553C72.4355 74.6366 68.175 75.7294 63.8439 75.7294C59.5127 75.7294 55.2523 74.6366 51.4606 72.553C47.669 70.4694 44.4699 67.4631 42.1623 63.8151H24.7945L26.5176 67.8664H36.0942C37.2749 69.8981 38.6372 71.8197 40.1646 73.6079L36.2315 80.9152L43.2735 86.1471L48.9671 80.6045C51.8894 82.1161 55.0327 83.1604 58.2815 83.6989L59.53 91.8637H68.2701L69.5187 83.7735C72.5963 83.2851 75.5762 82.3119 78.3462 80.8903L84.3893 86.7188L91.4313 81.4744L87.4233 74.0925L87.5357 74.0801Z" fill="#CC2222" stroke="#CC2222" stroke-width="0.25" stroke-linecap="round" stroke-linejoin="round"/>
<path d="M87.5357 17.933C89.3255 19.829 90.9037 21.9124 92.2429 24.1466H100.983L102.706 28.1856H85.5255C83.2157 24.5403 80.0159 21.5368 76.2245 19.4553C72.4331 17.3738 68.1738 16.2821 63.8439 16.2821C59.514 16.2821 55.2546 17.3738 51.4633 19.4553C47.6719 21.5368 44.472 24.5403 42.1623 28.1856H24.7945L26.5176 24.1466H36.0942C37.2718 22.1091 38.6342 20.1831 40.1646 18.3928L36.2315 11.0854L43.2735 5.85352L48.9671 11.3961C51.8918 9.88996 55.0342 8.84601 58.2815 8.30172L59.53 0.149353H68.2701L69.5187 8.22716C72.5949 8.72121 75.5739 9.69418 78.3462 11.1103L84.3893 5.29427L91.4313 10.5262L87.4233 17.9827L87.5357 17.933Z" fill="#CC2222" stroke="#CC2222" stroke-width="0.25" stroke-linecap="round" stroke-linejoin="round"/>
</svg>
