<svg width="33" height="28" viewBox="0 0 33 28" fill="none" xmlns="http://www.w3.org/2000/svg">
<path d="M5.8472 0C2.60805 0 0 2.21289 0 4.96126V23.0387C0 25.7871 2.60805 28 5.8472 28H21.5284L33 14.0035L21.5284 2.8e-05L5.8472 0ZM14.6283 5.11176H18.3542C18.5829 5.11176 18.7141 5.18274 18.7141 5.34976V22.7727C18.7141 22.8913 18.6482 22.9626 18.4521 22.9626H16.4257C16.2959 22.9626 16.1978 22.8675 16.1978 22.7963V16.3459H14.5623L10.0196 22.7963C9.95441 22.915 9.82386 22.9626 9.62774 22.9626H7.30741C7.04671 22.9626 6.88323 22.7964 7.04652 22.582L12.046 16.0125C9.36684 15.1556 7.86327 13.4181 7.86327 11.0617C7.86327 7.13434 10.9683 5.11176 14.6283 5.11176ZM14.5303 6.63426C12.5367 6.63426 10.5755 7.84811 10.5755 10.8238C10.5755 13.6801 12.6673 14.8225 14.8242 14.8225H16.1978V6.63426H14.5303Z" fill="#EBEBEB"/>
</svg>
